<svg width="399" height="93" viewBox="0 0 399 93" fill="none" xmlns="http://www.w3.org/2000/svg">
<path d="M32.24 0.280031C46.7467 0.877364 54 6.89338 54 18.328C54 32.5787 44.656 39.704 25.968 39.704H20.72V29.848H26.864C32.5813 29.848 36.5493 28.9947 38.768 27.288C40.9867 25.496 42.096 22.552 42.096 18.456C42.096 15.8107 41.1147 13.848 39.152 12.568C37.1893 11.2027 34.672 10.52 31.6 10.52C25.5413 10.52 20.7627 12.6534 17.264 16.92C13.8507 21.1867 12.144 26.3067 12.144 32.28C12.144 38.5947 13.9787 43.7147 17.648 47.64C21.4027 51.5654 26.2667 53.528 32.24 53.528C37.616 53.528 42.0107 52.2054 45.424 49.56L53.104 57.112C47.216 61.8907 40.2613 64.28 32.24 64.28C22.512 64.28 14.7467 61.4213 8.94399 55.704C3.14132 49.9867 0.23999 42.6054 0.23999 33.56C0.23999 23.4907 3.09866 15.3413 8.81599 9.11201C14.5333 2.88268 22.3413 -0.0613031 32.24 0.280031Z" fill="#E59F17"/>
<path d="M89.5 37.4H60.828V27.16H89.5V37.4Z" fill="#E59F17"/>
<path d="M140.294 1.56003V12.312H117.638C115.163 12.312 113.03 12.7813 111.238 13.72C109.446 14.6587 108.55 15.9814 108.55 17.688C108.55 18.712 108.763 19.6507 109.19 20.5041C109.617 21.2721 110.086 21.912 110.598 22.424C111.195 22.936 112.049 23.4907 113.158 24.088C114.353 24.6 115.249 24.984 115.846 25.24C116.529 25.4107 119.259 26.264 124.038 27.8C128.817 29.336 132.358 30.616 134.662 31.64C136.966 32.664 138.715 34.072 139.91 35.864C141.19 37.5707 142.001 39.2774 142.342 40.984C142.683 42.6054 142.854 44.2267 142.854 45.848C142.854 57.2827 135.003 63 119.302 63H97.158V52.248H119.302C127.323 52.248 131.334 50.1147 131.334 45.848C131.334 43.8 130.139 42.0934 127.75 40.728C125.446 39.3627 122.587 38.2107 119.174 37.272C115.846 36.3333 112.475 35.2667 109.062 34.072C105.734 32.792 102.875 30.7867 100.486 28.056C98.182 25.24 97.03 21.784 97.03 17.688C97.03 12.4827 99.0354 8.51467 103.046 5.78401C107.057 2.96801 111.921 1.56003 117.638 1.56003H140.294Z" fill="#E59F17"/>
<path d="M226.34 52.248L225.956 63C218.766 63 189.455 63 181.86 63C172.388 63 167.933 61.2507 162.216 55.192C156.499 49.048 153.64 41.4107 153.64 32.28C153.64 23.32 156.627 15.768 162.6 9.62402C168.659 3.39469 176.027 2.49076 180.5 2C184 1.61601 183.5 1.56003 196.5 1.56003L193 12.568C188 12.568 190 12.568 185 12.696C178.948 12.8509 174.333 14.744 170.92 18.584C167.507 22.424 165.8 25.88 165.8 32.28C165.8 38.68 167.507 43.8427 170.92 47.768C174.419 51.608 179.112 52.8389 185 52.8389C187.601 52.8389 203.699 52.8389 203.699 52.8389C214.599 52.5361 224.442 52.248 226.34 52.248Z" fill="#424242"/>
<path d="M207.699 39.5C208.199 39.75 207.996 45.268 210.199 47.768C213.231 51.2089 221.907 52.248 226.34 52.248H243.236V27.8C243.236 17.4747 238.201 12.312 228.132 12.312H207.652V1.56003H228.772C237.049 1.56003 243.407 3.608 247.844 7.704C252.281 11.8 254.5 17.688 254.5 25.368V63H225.956C217.053 63 209.237 59.9777 203.699 52.8389C203.699 52.3799 203.852 48.9797 204.699 46C205.696 42.4876 207.428 39.3647 207.699 39.5Z" fill="#E59F17"/>
<path d="M270.305 92.184V32.28C270.305 27.8427 271.116 23.6614 272.737 19.736C274.358 15.8107 276.577 12.44 279.393 9.62402C282.209 6.72269 285.537 4.46135 289.377 2.84002C293.217 1.13336 297.313 0.280031 301.665 0.280031C306.017 0.280031 310.07 1.13336 313.825 2.84002C317.665 4.46135 320.993 6.72269 323.809 9.62402C326.71 12.5254 328.972 15.9387 330.593 19.864C332.214 23.704 333.025 27.8427 333.025 32.28C333.025 36.7174 332.214 40.8987 330.593 44.824C329.057 48.664 326.881 52.0347 324.065 54.936C321.249 57.8373 317.921 60.1414 314.081 61.848C310.241 63.4694 306.102 64.28 301.665 64.28C296.204 64.28 291.126 63 286.433 60.44V48.92C290.614 51.992 295.564 53.528 301.281 53.528C304.353 53.528 307.126 53.016 309.601 51.992C312.161 50.8827 314.294 49.3894 316.001 47.512C317.793 45.6347 319.158 43.416 320.097 40.856C321.036 38.2107 321.505 35.352 321.505 32.28C321.505 29.208 321.036 26.392 320.097 23.832C319.158 21.1867 317.836 18.9254 316.129 17.048C314.422 15.1707 312.332 13.72 309.857 12.696C307.468 11.5867 304.737 11.032 301.665 11.032C298.678 11.032 295.948 11.544 293.473 12.568C291.084 13.592 288.993 15.0427 287.201 16.92C285.494 18.7974 284.172 21.0587 283.233 23.704C282.294 26.264 281.825 29.1227 281.825 32.28V92.184H270.305Z" fill="#E59F17"/>
<path d="M376.51 0.280031C391.017 0.877364 398.27 6.89338 398.27 18.328C398.27 32.5787 388.926 39.704 370.238 39.704H364.99V29.848H371.134C376.851 29.848 380.819 28.9947 383.038 27.288C385.257 25.496 386.366 22.552 386.366 18.456C386.366 15.8107 385.385 13.848 383.422 12.568C381.459 11.2027 378.942 10.52 375.87 10.52C369.811 10.52 365.033 12.6534 361.534 16.92C358.121 21.1867 356.414 26.3067 356.414 32.28C356.414 38.5947 358.249 43.7147 361.918 47.64C365.673 51.5654 370.537 53.528 376.51 53.528C381.886 53.528 386.281 52.2054 389.694 49.56L397.374 57.112C391.486 61.8907 384.531 64.28 376.51 64.28C366.782 64.28 359.017 61.4213 353.214 55.704C347.411 49.9867 344.51 42.6054 344.51 33.56C344.51 23.4907 347.369 15.3413 353.086 9.11201C358.803 2.88268 366.611 -0.0613031 376.51 0.280031Z" fill="#E59F17"/>
<rect x="217" y="29" width="20" height="6" fill="#424242"/>
<circle cx="218" cy="32" r="5" fill="#424242"/>
</svg>
