<svg width="399" height="92" viewBox="0 0 399 92" fill="none" xmlns="http://www.w3.org/2000/svg">
<path d="M32 0.0266129C46.5067 0.623946 53.76 6.63996 53.76 18.0746C53.76 32.3253 44.416 39.4506 25.728 39.4506H20.48V29.5946H26.624C32.3413 29.5946 36.3093 28.7413 38.528 27.0346C40.7467 25.2426 41.856 22.2986 41.856 18.2026C41.856 15.5573 40.8747 13.5946 38.912 12.3146C36.9493 10.9493 34.432 10.2666 31.36 10.2666C25.3013 10.2666 20.5227 12.4 17.024 16.6666C13.6107 20.9333 11.904 26.0533 11.904 32.0266C11.904 38.3413 13.7387 43.4613 17.408 47.3866C21.1627 51.3119 26.0267 53.2746 32 53.2746C37.376 53.2746 41.7707 51.952 45.184 49.3066L52.864 56.8586C46.976 61.6373 40.0213 64.0266 32 64.0266C22.272 64.0266 14.5067 61.1679 8.704 55.4506C2.90133 49.7333 0 42.3519 0 33.3066C0 23.2373 2.85867 15.0879 8.576 8.85859C14.2933 2.62926 22.1013 -0.314721 32 0.0266129Z" fill="#E59F17"/>
<path d="M89.26 37.1466H60.588V26.9066H89.26V37.1466Z" fill="#E59F17"/>
<path d="M140.054 1.30661V12.0586H117.398C114.923 12.0586 112.79 12.5279 110.998 13.4666C109.206 14.4053 108.31 15.728 108.31 17.4346C108.31 18.4586 108.523 19.3973 108.95 20.2506C109.377 21.0186 109.846 21.6586 110.358 22.1706C110.955 22.6826 111.809 23.2373 112.918 23.8346C114.113 24.3466 115.009 24.7306 115.606 24.9866C116.289 25.1573 119.019 26.0106 123.798 27.5466C128.577 29.0826 132.118 30.3626 134.422 31.3866C136.726 32.4106 138.475 33.8186 139.67 35.6106C140.95 37.3173 141.761 39.0239 142.102 40.7306C142.443 42.3519 142.614 43.9733 142.614 45.5946C142.614 57.0293 134.763 62.7466 119.062 62.7466H96.918V51.9946H119.062C127.083 51.9946 131.094 49.8613 131.094 45.5946C131.094 43.5466 129.899 41.8399 127.51 40.4746C125.206 39.1093 122.347 37.9573 118.934 37.0186C115.606 36.0799 112.235 35.0133 108.822 33.8186C105.494 32.5386 102.635 30.5333 100.246 27.8026C97.942 24.9866 96.79 21.5306 96.79 17.4346C96.79 12.2293 98.7954 8.26126 102.806 5.53059C106.817 2.71459 111.681 1.30661 117.398 1.30661H140.054Z" fill="#E59F17"/>
<path d="M226.1 51.9946L225.716 62.7466C218.526 62.7466 189.215 62.7466 181.62 62.7466C172.148 62.7466 167.693 60.9973 161.976 54.9386C156.259 48.7946 153.4 41.1573 153.4 32.0266C153.4 23.0666 156.387 15.5146 162.36 9.3706C168.419 3.14127 175.787 2.23735 180.26 1.74658C183.76 1.36259 183.26 1.30661 196.26 1.30661L192.76 12.3146C187.76 12.3146 189.76 12.3146 184.76 12.4426C178.708 12.5975 174.093 14.4906 170.68 18.3306C167.267 22.1706 165.56 25.6266 165.56 32.0266C165.56 38.4266 167.267 43.5893 170.68 47.5146C174.179 51.3546 178.872 52.5855 184.76 52.5855C187.361 52.5855 203.459 52.5855 203.459 52.5855C214.359 52.2827 224.202 51.9946 226.1 51.9946Z" fill="#F7F7F7"/>
<path d="M207.459 39.2466C207.959 39.4966 207.756 45.0146 209.959 47.5146C212.991 50.9554 221.667 51.9946 226.1 51.9946H242.996V27.5466C242.996 17.2213 237.961 12.0586 227.892 12.0586H207.412V1.30661H228.532C236.809 1.30661 243.167 3.35459 247.604 7.45059C252.041 11.5466 254.26 17.4346 254.26 25.1146V62.7466H225.716C216.813 62.7466 208.997 59.7243 203.459 52.5855C203.459 52.1265 203.612 48.7263 204.459 45.7466C205.456 42.2342 207.188 39.1113 207.459 39.2466Z" fill="#E59F17"/>
<path d="M270.065 91.9306V32.0266C270.065 27.5893 270.876 23.408 272.497 19.4826C274.118 15.5573 276.337 12.1866 279.153 9.3706C281.969 6.46927 285.297 4.20794 289.137 2.5866C292.977 0.879938 297.073 0.0266129 301.425 0.0266129C305.777 0.0266129 309.83 0.879938 313.585 2.5866C317.425 4.20794 320.753 6.46927 323.569 9.3706C326.47 12.2719 328.732 15.6853 330.353 19.6106C331.974 23.4506 332.785 27.5893 332.785 32.0266C332.785 36.4639 331.974 40.6453 330.353 44.5706C328.817 48.4106 326.641 51.7813 323.825 54.6826C321.009 57.5839 317.681 59.8879 313.841 61.5946C310.001 63.2159 305.862 64.0266 301.425 64.0266C295.964 64.0266 290.886 62.7466 286.193 60.1866V48.6666C290.374 51.7386 295.324 53.2746 301.041 53.2746C304.113 53.2746 306.886 52.7626 309.361 51.7386C311.921 50.6293 314.054 49.1359 315.761 47.2586C317.553 45.3813 318.918 43.1626 319.857 40.6026C320.796 37.9573 321.265 35.0986 321.265 32.0266C321.265 28.9546 320.796 26.1386 319.857 23.5786C318.918 20.9333 317.596 18.672 315.889 16.7946C314.182 14.9173 312.092 13.4666 309.617 12.4426C307.228 11.3333 304.497 10.7786 301.425 10.7786C298.438 10.7786 295.708 11.2906 293.233 12.3146C290.844 13.3386 288.753 14.7893 286.961 16.6666C285.254 18.544 283.932 20.8053 282.993 23.4506C282.054 26.0106 281.585 28.8693 281.585 32.0266V91.9306H270.065Z" fill="#E59F17"/>
<path d="M376.27 0.0266129C390.777 0.623946 398.03 6.63996 398.03 18.0746C398.03 32.3253 388.686 39.4506 369.998 39.4506H364.75V29.5946H370.894C376.611 29.5946 380.579 28.7413 382.798 27.0346C385.017 25.2426 386.126 22.2986 386.126 18.2026C386.126 15.5573 385.145 13.5946 383.182 12.3146C381.219 10.9493 378.702 10.2666 375.63 10.2666C369.571 10.2666 364.793 12.4 361.294 16.6666C357.881 20.9333 356.174 26.0533 356.174 32.0266C356.174 38.3413 358.009 43.4613 361.678 47.3866C365.433 51.3119 370.297 53.2746 376.27 53.2746C381.646 53.2746 386.041 51.952 389.454 49.3066L397.134 56.8586C391.246 61.6373 384.291 64.0266 376.27 64.0266C366.542 64.0266 358.777 61.1679 352.974 55.4506C347.171 49.7333 344.27 42.3519 344.27 33.3066C344.27 23.2373 347.129 15.0879 352.846 8.85859C358.563 2.62926 366.371 -0.314721 376.27 0.0266129Z" fill="#E59F17"/>
<rect x="216.76" y="28.7466" width="20" height="6" fill="#F7F7F7"/>
<circle cx="217.76" cy="31.7466" r="5" fill="#F7F7F7"/>
</svg>
